# xmcd
#
# Track frame offsets: 
#        150
#        9807
#        20289
#        33789
#        44746
#        57925
#        67932
#
# Disc length: 1064 seconds
#
# Revision: 0
# Processed by: cddbd v1.5.2PL0 Copyright (c) Steve Scherf et al.
# Submitted via: ExactAudioCopyFreeDBPlugin 1.0
#
DISCID=4a042607
DTITLE=Loretta Lynn - Best Of Loretta Lynn
DYEAR=2008
DGENRE=Country
TTITLE0=Don't Come Home a Drinkin' (With Lovin' on Your Mind)
TTITLE1=You're Looking at Country
TTITLE2=Coal Miner's Daughter
TTITLE3=Lead Me On
TTITLE4=Woman Of The World (Leave My World Alone)
TTITLE5=You Ain't Woman Enough To Take My Man
TTITLE6=The Pill
EXTD=
EXTT0=
EXTT1=
EXTT2=
EXTT3=
EXTT4=
EXTT5=
EXTT6=
PLAYORDER=
